<?xml version="1.0" encoding="UTF-8"?>
<svg width="733px" height="296px" viewBox="0 0 733 296" version="1.1" xmlns="http://www.w3.org/2000/svg" xmlns:xlink="http://www.w3.org/1999/xlink">
    <!-- Generator: Sketch 58 (84663) - https://sketch.com -->
    <title>GH-logo-Groene-Hart-wit-2</title>
    <desc>Created with Sketch.</desc>
    <g id="Page-1" stroke="none" stroke-width="1" fill="none" fill-rule="evenodd">
        <g id="GH-logo-Groene-Hart-wit-2">
            <path d="M375.235891,50.0816334 C372.477654,50.0816334 370.254805,51.6152894 370.254805,55.4484374 C370.254805,58.2072326 371.941275,61.1207823 375.388575,61.1207823 C378.300488,61.1207823 380.522346,59.3579707 380.522346,55.677593 C380.522346,53.1479534 378.760525,50.0816334 375.235891,50.0816334 Z M367.80392,80.8232027 C367.113865,81.4372603 366.271126,82.2804735 366.271126,84.1970475 C366.271126,86.8030724 369.565741,89.2563268 375.312233,89.2563268 C379.373246,89.2563268 383.050564,88.182966 383.050564,85.9598591 C383.050564,82.5106211 371.481239,82.7397767 367.80392,80.8232027 Z M374.239475,97 C363.436547,97 357,91.9397288 357,86.2663919 C357,82.0503259 360.141931,79.0603911 363.436547,77.9096531 C361.903752,77.0674319 361.061013,74.8443251 361.061013,73.2342839 C361.061013,70.7036523 362.746492,68.1740127 365.964765,66.6413487 C361.903752,64.7237827 359.52921,60.1247987 359.52921,55.3710602 C359.52921,49.0082726 364.049268,41.5721242 375.465909,41.5721242 C378.606849,41.5721242 381.288743,42.4917226 382.820546,43.412313 C383.20424,43.6414686 383.434259,43.4886982 383.740619,43.1821654 C386.116153,40.9590586 388.950732,39.579165 396,40.1158454 L393.854484,48.0886742 C391.938987,47.7047642 390.253508,47.4746166 388.87439,47.9349118 C390.559869,50.1580186 391.785311,52.611273 391.785311,56.9047162 C391.785311,64.8001679 384.429683,69.7076687 376.461333,69.7076687 C374.393151,69.7076687 373.014033,69.6302915 371.404896,69.0946031 C371.098536,69.9368243 371.021202,70.4735047 371.021202,71.1639475 C371.021202,76.6835219 395.617297,71.7006279 395.617297,84.6563507 C395.617297,91.1729008 388.644372,97 374.239475,97 L374.239475,97 Z" id="Fill-1" fill="#49AB35" fill-rule="nonzero"></path>
            <path d="M420.911269,53.2376013 C418.828971,51.937759 416.900399,51.7082587 415.974046,51.7082587 C413.813886,51.7082587 412.193767,52.2434297 409.648292,54.1546133 L409.648292,79 L398,79 L398,42.8408416 L407.873447,42.8408416 L409.108252,46.5098789 C411.963177,43.987354 414.893966,42 418.982697,42 C420.834406,42 423.14929,42.535171 425,43.834024 L420.911269,53.2376013" id="Fill-2" fill="#49AB35" fill-rule="nonzero"></path>
            <path d="M442.267196,51.0003143 C437.083417,51.0003143 434.915582,55.5382963 434.915582,61.1542854 C434.915582,67.1534996 437.779327,71.3072611 442.577601,71.3072611 C447.762382,71.3072611 449.929215,66.7692791 449.929215,61.1542854 C449.929215,55.1540759 447.06547,51.0003143 442.267196,51.0003143 Z M456.816221,74.3083613 C453.333667,77.8459765 448.458292,80 442.500501,80 C436.928214,80 432.363244,78.3844824 429.034892,75.462018 C425.165832,72.0766974 423,67.0768546 423,61.3842205 C423,55.9225168 425.011631,51.0769593 428.493183,47.5383487 C431.898637,44.0763831 436.696911,42 442.500501,42 C448.767696,42 453.797273,44.0763831 457.201725,47.6916387 C460.374875,51.0769593 462,55.6925817 462,60.8457146 C462,66.0764878 460.219672,70.9230407 456.816221,74.3083613 L456.816221,74.3083613 Z" id="Fill-3" fill="#49AB35" fill-rule="nonzero"></path>
            <path d="M482.154628,50.3841681 C478.326302,50.3841681 476.181726,53.9227787 476.181726,56.6919531 L488.28213,56.6919531 C488.052213,53.6152033 486.367472,50.3841681 482.154628,50.3841681 Z M476.565252,64.3843252 C476.794178,68.8466576 481.542175,70.9230407 485.60141,70.9230407 C489.201801,70.9230407 491.727921,70.3845348 495.55823,68.4614417 L498.162641,75.7695935 C493.107427,79.0772737 488.052213,80 483.76306,80 C470.284141,80 465,70.7687552 465,61.4618609 C465,51.2302494 471.20282,42 482.614463,42 C492.723901,42 500,49.4614417 500,60.7690696 C500,61.5385059 500,62.7688076 500,64.3843252 L476.565252,64.3843252 L476.565252,64.3843252 Z" id="Fill-4" fill="#49AB35" fill-rule="nonzero"></path>
            <path d="M527.335212,79 L527.335212,58.3588215 C527.335212,55.2249552 526.639464,51.7082587 522.545942,51.7082587 C520.149807,51.7082587 517.523755,52.3967596 514.665787,54.2317729 L514.665787,79 L503,79 L503,42.8408416 L512.966401,42.8408416 L514.124983,46.5098789 C517.832644,43.6816833 522.005137,42 526.87138,42 C532.588315,42 539,45.0576959 539,55.1487849 L539,79 L527.335212,79" id="Fill-5" fill="#49AB35" fill-rule="nonzero"></path>
            <path d="M559.155133,50.3841681 C555.326915,50.3841681 553.1824,53.9227787 553.1824,56.6919531 L565.282462,56.6919531 C565.052551,53.6152033 563.367858,50.3841681 559.155133,50.3841681 Z M553.564924,64.3843252 C553.794835,68.8466576 558.542698,70.9230407 562.601818,70.9230407 C566.201116,70.9230407 568.728156,70.3845348 572.557365,68.4614417 L575.161702,75.7695935 C570.107622,79.0772737 565.052551,80 560.76352,80 C547.283991,80 542,70.7687552 542,61.4618609 C542,51.2302494 548.203636,42 559.614956,42 C569.724107,42 577,49.4614417 577,60.7690696 C577,61.5385059 577,62.7688076 577,64.3843252 L553.564924,64.3843252 L553.564924,64.3843252 Z" id="Fill-6" fill="#49AB35" fill-rule="nonzero"></path>
            <path d="M623.155945,79 L623.155945,58.491355 C623.155945,54.6855649 622.610475,51.4225975 618.246716,51.4225975 C615.831928,51.4225975 612.948299,52.4328508 610.766419,54.141737 L610.766419,79 L599,79 L599,24 L610.766419,24 L610.766419,45.9843185 C613.805321,43.4209891 618.012799,41.4014877 622.610475,41.4014877 C628.533007,41.4014877 635,43.6542018 635,54.9961801 L635,79 L623.155945,79" id="Fill-8" fill="#49AB35" fill-rule="nonzero"></path>
            <path d="M658.461635,62.9997381 L654.537984,63.1540235 C650.615328,63.3073135 648.614684,64.6152557 648.614684,67.0768546 C648.614684,69.6150985 650.538687,71.0763307 653.768582,71.0763307 C655.999151,71.0763307 657.614596,70.5388202 658.461635,70.0003143 L658.461635,62.9997381 Z M661.153049,79.2305637 L659.538599,76.1538139 C657.076115,78.3078374 653.922861,80 649.385082,80 C642.23054,80 637,75.3077326 637,68.0005763 C637,60.1539187 643.538423,56.3077326 652.692614,55.9225168 L658.538277,55.6925817 C658.538277,55.6149413 658.538277,55.4616513 658.538277,55.3840109 C658.538277,51.9996857 655.460669,50.6150985 651.922217,50.6150985 C648.692321,50.6150985 645.46143,51.4611798 642.845663,52.845767 L639.461489,46.0004715 C644.615387,42.6917959 649.615006,42 654.615621,42 C664.999063,42 670.383881,46.1537615 670.383881,55.8458718 L670.383881,72.4619132 C670.383881,74.3083613 670.383881,77.2308256 671,79.2305637 L661.153049,79.2305637 L661.153049,79.2305637 Z" id="Fill-10" fill="#49AB35" fill-rule="nonzero"></path>
            <path d="M697.91142,53.2376013 C695.829199,51.937759 693.899701,51.7082587 692.97438,51.7082587 C690.8143,51.7082587 689.19424,52.2434297 686.648859,54.1546133 L686.648859,79 L675,79 L675,42.8408416 L684.875079,42.8408416 L686.10884,46.5098789 C688.963659,43.987354 691.89434,42 695.98292,42 C697.833561,42 700.14836,42.535171 702,43.834024 L697.91142,53.2376013" id="Fill-11" fill="#49AB35" fill-rule="nonzero"></path>
            <path d="M720.570904,80 C712.437734,80 709.828606,75.9293378 709.828606,70.4762803 L709.828606,51.2757935 L703,51.2757935 L703,42.9048981 L709.828606,42.9048981 L709.828606,34.302444 L721.4148,31 L721.4148,42.9048981 L732.847106,42.9048981 L729.624417,51.2757935 L721.4148,51.2757935 L721.4148,66.9432715 C721.4148,69.7090559 722.489029,70.8608863 725.020717,70.8608863 C726.939835,70.8608863 729.241189,70.1691918 730.622199,69.6315384 L733,77.3892506 C729.241189,79.2317818 724.483602,80 720.570904,80" id="Fill-12" fill="#49AB35" fill-rule="nonzero"></path>
            <path d="M533.373197,136 C526.121235,136 522,131.001104 522,124.671202 C522,118.24376 526.78829,113 534.384864,113 C536.650032,113 538.733825,113.445024 540.188852,114.192826 L540.119325,118.443919 C538.163502,117.288687 536.307435,116.88024 534.556162,116.88024 C529.323504,116.88024 527.028108,120.557273 527.028108,124.434466 C527.028108,128.719088 529.759811,132.087247 534.151092,132.087247 C536.209695,132.087247 537.962983,131.511154 539.681003,130.559129 L541,133.9598 C538.537336,135.422892 535.871129,136 533.373197,136" id="Fill-13" fill="#49AB35" fill-rule="nonzero"></path>
            <path d="M533.373197,136 C526.121235,136 522,131.001104 522,124.671202 C522,118.24376 526.78829,113 534.384864,113 C536.650032,113 538.733825,113.445024 540.188852,114.192826 L540.119325,118.443919 C538.163502,117.288687 536.307435,116.88024 534.556162,116.88024 C529.323504,116.88024 527.028108,120.557273 527.028108,124.434466 C527.028108,128.719088 529.759811,132.087247 534.151092,132.087247 C536.209695,132.087247 537.962983,131.511154 539.681003,130.559129 L541,133.9598 C538.537336,135.422892 535.871129,136 533.373197,136 Z" id="Stroke-14" stroke="#49AB35" stroke-width="0.5"></path>
            <polyline id="Fill-15" fill="#49AB35" fill-rule="nonzero" points="560.501445 135 560.501445 125.784902 550.491693 125.784902 550.491693 135 546 135 546 113 550.491693 113 550.491693 121.845258 560.501445 121.845258 560.501445 113 565 113 565 135 560.501445 135"></polyline>
            <polygon id="Stroke-16" stroke="#49AB35" stroke-width="0.5" points="560.501445 135 560.501445 125.784902 550.491693 125.784902 550.491693 135 546 135 546 113 550.491693 113 550.491693 121.845258 560.501445 121.845258 560.501445 113 565 113 565 135"></polygon>
            <path d="M578.525929,116.80658 L576.579845,116.80658 L576.579845,122.881356 L578.525929,122.881356 C580.465016,122.881356 581.905339,121.711864 581.905339,119.810568 C581.905339,118.105683 580.700905,116.80658 578.525929,116.80658 Z M583.779457,135 C580.435031,129.291127 579.092662,126.819541 578.292039,126.686939 L576.579845,126.686939 L576.579845,135 L572,135 L572,113 L578.422977,113 C584.316204,113 586.458196,115.90329 586.458196,119.311067 C586.458196,122.214357 584.815969,124.216351 582.438088,125.018943 L582.438088,125.051844 C583.543568,125.687936 585.682561,129.391825 589,135 L583.779457,135 L583.779457,135 Z" id="Fill-17" fill="#49AB35" fill-rule="nonzero"></path>
            <path d="M578.525929,116.80658 L576.579845,116.80658 L576.579845,122.881356 L578.525929,122.881356 C580.465016,122.881356 581.905339,121.711864 581.905339,119.810568 C581.905339,118.105683 580.700905,116.80658 578.525929,116.80658 Z M583.779457,135 C580.435031,129.291127 579.092662,126.819541 578.292039,126.686939 L576.579845,126.686939 L576.579845,135 L572,135 L572,113 L578.422977,113 C584.316204,113 586.458196,115.90329 586.458196,119.311067 C586.458196,122.214357 584.815969,124.216351 582.438088,125.018943 L582.438088,125.051844 C583.543568,125.687936 585.682561,129.391825 589,135 L583.779457,135 Z" id="Stroke-18" stroke="#49AB35" stroke-width="0.5"></path>
            <polygon id="Fill-19" fill="#49AB35" fill-rule="nonzero" points="595 135 600 135 600 113 595 113"></polygon>
            <polygon id="Stroke-20" stroke="#49AB35" stroke-width="0.5" points="595 135 600 135 600 113 595 113"></polygon>
            <path d="M611.985703,136 C608.82645,136 606.561755,134.947341 605,133.890617 L606.763304,130.521294 C608.128475,131.441863 609.788523,132.256759 611.783161,132.256759 C613.381652,132.256759 615.174742,131.645079 615.174742,129.945176 C615.174742,126.987365 609.856037,126.472212 607.195195,123.377231 C606.363185,122.392649 605.799245,121.131693 605.799245,119.397243 C605.799245,115.994389 608.427323,113 613.247617,113 C615.57089,113 617.501986,113.612697 618.762907,114.36358 L618.700357,118.377098 C616.840747,117.354921 615.276013,116.744257 613.477959,116.744257 C611.851668,116.744257 610.58479,117.491076 610.58479,118.784547 C610.58479,122.663942 620,122.324571 620,129.367026 C620,133.448622 616.468427,136 611.985703,136" id="Fill-21" fill="#49AB35" fill-rule="nonzero"></path>
            <path d="M611.985703,136 C608.82645,136 606.561755,134.947341 605,133.890617 L606.763304,130.521294 C608.128475,131.441863 609.788523,132.256759 611.783161,132.256759 C613.381652,132.256759 615.174742,131.645079 615.174742,129.945176 C615.174742,126.987365 609.856037,126.472212 607.195195,123.377231 C606.363185,122.392649 605.799245,121.131693 605.799245,119.397243 C605.799245,115.994389 608.427323,113 613.247617,113 C615.57089,113 617.501986,113.612697 618.762907,114.36358 L618.700357,118.377098 C616.840747,117.354921 615.276013,116.744257 613.477959,116.744257 C611.851668,116.744257 610.58479,117.491076 610.58479,118.784547 C610.58479,122.663942 620,122.324571 620,129.367026 C620,133.448622 616.468427,136 611.985703,136 Z" id="Stroke-22" stroke="#49AB35" stroke-width="0.5"></path>
            <polyline id="Fill-23" fill="#49AB35" fill-rule="nonzero" points="640.961941 116.737617 635.052684 116.737617 635.052684 135 630.44474 135 630.44474 116.737617 624 116.737617 624 113 642 113 640.961941 116.737617"></polyline>
            <polygon id="Stroke-24" stroke="#49AB35" stroke-width="0.5" points="640.961941 116.737617 635.052684 116.737617 635.052684 135 630.44474 135 630.44474 116.737617 624 116.737617 624 113 642 113"></polygon>
            <polyline id="Fill-25" fill="#49AB35" fill-rule="nonzero" points="648 135 648 113 661 113 659.76718 116.73679 652.656868 116.73679 652.656868 121.881356 659.806817 121.881356 659.806817 125.65005 652.656868 125.65005 652.656868 131.260219 660.95833 131.260219 660.95833 135 648 135"></polyline>
            <polygon id="Stroke-26" stroke="#49AB35" stroke-width="0.5" points="648 135 648 113 661 113 659.76718 116.73679 652.656868 116.73679 652.656868 121.881356 659.806817 121.881356 659.806817 125.65005 652.656868 125.65005 652.656868 131.260219 660.95833 131.260219 660.95833 135"></polygon>
            <polyline id="Fill-27" fill="#49AB35" fill-rule="nonzero" points="667 135 667 113 671.430844 113 671.430844 131.225495 679 131.225495 679 135 667 135"></polyline>
            <polygon id="Stroke-28" stroke="#49AB35" stroke-width="0.5" points="667 135 667 113 671.430844 113 671.430844 131.225495 679 131.225495 679 135"></polygon>
            <polygon id="Fill-29" fill="#49AB35" fill-rule="nonzero" points="685 135 690 135 690 113 685 113"></polygon>
            <polygon id="Stroke-30" stroke="#49AB35" stroke-width="0.5" points="685 135 690 135 690 113 685 113"></polygon>
            <path d="M698.241786,141 C697.143214,141 695.972735,140.766061 695,140.431578 L695.933786,137.032993 C696.538999,137.266932 697.375911,137.365485 698.077999,137.365485 C700.249176,137.365485 700.45391,135.666193 700.45391,133.232232 L700.45391,113 L705,113 L705,134.197853 C705,138.232552 703.16139,141 698.241786,141" id="Fill-31" fill="#49AB35" fill-rule="nonzero"></path>
            <path d="M698.241786,141 C697.143214,141 695.972735,140.766061 695,140.431578 L695.933786,137.032993 C696.538999,137.266932 697.375911,137.365485 698.077999,137.365485 C700.249176,137.365485 700.45391,135.666193 700.45391,133.232232 L700.45391,113 L705,113 L705,134.197853 C705,138.232552 703.16139,141 698.241786,141 Z" id="Stroke-32" stroke="#49AB35" stroke-width="0.5"></path>
            <polyline id="Fill-33" fill="#49AB35" fill-rule="nonzero" points="724.348778 135 716.73187 125.519871 716.628252 125.519871 716.628252 135 712 135 712 113 716.628252 113 716.628252 122.114243 716.692251 122.114243 724.077544 113.068791 729.448389 113.068791 720.603307 123.581774 730 135 724.348778 135"></polyline>
            <polygon id="Stroke-34" stroke="#49AB35" stroke-width="0.5" points="724.348778 135 716.73187 125.519871 716.628252 125.519871 716.628252 135 712 135 712 113 716.628252 113 716.628252 122.114243 716.692251 122.114243 724.077544 113.068791 729.448389 113.068791 720.603307 123.581774 730 135"></polygon>
            <path d="M535.328746,171 L531.949002,171 L523,149 L527.835132,149 L532.283414,160.614359 C532.845386,162.041258 533.3381,163.433474 533.771452,164.662193 L533.842688,164.662193 C534.199856,163.466174 534.700486,162.205747 535.300054,160.74714 L540.231157,149 L545,149 L535.328746,171" id="Fill-35" fill="#49AB35" fill-rule="nonzero"></path>
            <path d="M535.328746,171 L531.949002,171 L523,149 L527.835132,149 L532.283414,160.614359 C532.845386,162.041258 533.3381,163.433474 533.771452,164.662193 L533.842688,164.662193 C534.199856,163.466174 534.700486,162.205747 535.300054,160.74714 L540.231157,149 L545,149 L535.328746,171 Z" id="Stroke-36" stroke="#49AB35" stroke-width="0.5"></path>
            <path d="M556.493939,152.809454 C552.645455,152.809454 549.834343,155.636315 549.834343,160.53404 C549.834343,165.432781 552.645455,168.255578 556.493939,168.255578 C560.287879,168.255578 563.089899,165.432781 563.089899,160.53404 C563.089899,155.702364 560.351515,152.809454 556.493939,152.809454 Z M564.886869,168.668125 C562.823232,170.740004 559.983838,172 556.493939,172 C553.215152,172 550.507071,171.04789 548.549495,169.278816 C546.247475,167.201856 545,164.177866 545,160.704749 C545,157.403358 546.150505,154.4444 548.210101,152.332892 C550.236364,150.261012 553.078788,149 556.493939,149 C560.151515,149 563.193939,150.292512 565.190909,152.472101 C567.049495,154.513497 568,157.299713 568,160.433444 C568,163.663707 566.913131,166.624696 564.886869,168.668125 L564.886869,168.668125 Z" id="Fill-37" fill="#49AB35" fill-rule="nonzero"></path>
            <path d="M556.493939,152.809454 C552.645455,152.809454 549.834343,155.636315 549.834343,160.53404 C549.834343,165.432781 552.645455,168.255578 556.493939,168.255578 C560.287879,168.255578 563.089899,165.432781 563.089899,160.53404 C563.089899,155.702364 560.351515,152.809454 556.493939,152.809454 Z M564.886869,168.668125 C562.823232,170.740004 559.983838,172 556.493939,172 C553.215152,172 550.507071,171.04789 548.549495,169.278816 C546.247475,167.201856 545,164.177866 545,160.704749 C545,157.403358 546.150505,154.4444 548.210101,152.332892 C550.236364,150.261012 553.078788,149 556.493939,149 C560.151515,149 563.193939,150.292512 565.190909,152.472101 C567.049495,154.513497 568,157.299713 568,160.433444 C568,163.663707 566.913131,166.624696 564.886869,168.668125 Z" id="Stroke-38" stroke="#49AB35" stroke-width="0.5"></path>
            <path d="M581.501515,152.809454 C577.647477,152.809454 574.838756,155.636315 574.838756,160.53404 C574.838756,165.432781 577.647477,168.255578 581.501515,168.255578 C585.288895,168.255578 588.092566,165.432781 588.092566,160.53404 C588.092566,155.702364 585.352523,152.809454 581.501515,152.809454 Z M589.889299,168.668125 C587.823914,170.740004 584.985904,172 581.501515,172 C578.217099,172 575.513415,171.04789 573.550037,169.278816 C571.25236,167.201856 570,164.177866 570,160.704749 C570,157.403358 571.149344,154.4444 573.212708,152.332892 C575.244764,150.261012 578.083783,149 581.501515,149 C585.157599,149 588.194573,150.292512 590.191279,152.472101 C592.05164,154.513497 593,157.299713 593,160.433444 C593,163.663707 591.915294,166.624696 589.889299,168.668125 L589.889299,168.668125 Z" id="Fill-39" fill="#49AB35" fill-rule="nonzero"></path>
            <path d="M581.501515,152.809454 C577.647477,152.809454 574.838756,155.636315 574.838756,160.53404 C574.838756,165.432781 577.647477,168.255578 581.501515,168.255578 C585.288895,168.255578 588.092566,165.432781 588.092566,160.53404 C588.092566,155.702364 585.352523,152.809454 581.501515,152.809454 Z M589.889299,168.668125 C587.823914,170.740004 584.985904,172 581.501515,172 C578.217099,172 575.513415,171.04789 573.550037,169.278816 C571.25236,167.201856 570,164.177866 570,160.704749 C570,157.403358 571.149344,154.4444 573.212708,152.332892 C575.244764,150.261012 578.083783,149 581.501515,149 C585.157599,149 588.194573,150.292512 590.191279,152.472101 C592.05164,154.513497 593,157.299713 593,160.433444 C593,163.663707 591.915294,166.624696 589.889299,168.668125 Z" id="Stroke-40" stroke="#49AB35" stroke-width="0.5"></path>
            <path d="M602.526929,152.805066 L600.579845,152.805066 L600.579845,158.880013 L602.526929,158.880013 C604.463017,158.880013 605.90234,157.712674 605.90234,155.809642 C605.90234,154.10798 604.699906,152.805066 602.526929,152.805066 Z M607.774459,171 C604.434031,165.289909 603.092662,162.817663 602.294038,162.686075 L600.579845,162.686075 L600.579845,171 L596,171 L596,149 L602.422977,149 C608.317204,149 610.458196,151.904889 610.458196,155.311206 C610.458196,158.214101 608.816968,160.217817 606.439087,161.016312 L606.439087,161.049209 C607.541569,161.686211 609.681562,165.392587 613,171 L607.774459,171 L607.774459,171 Z" id="Fill-41" fill="#49AB35" fill-rule="nonzero"></path>
            <path d="M602.526929,152.805066 L600.579845,152.805066 L600.579845,158.880013 L602.526929,158.880013 C604.463017,158.880013 605.90234,157.712674 605.90234,155.809642 C605.90234,154.10798 604.699906,152.805066 602.526929,152.805066 Z M607.774459,171 C604.434031,165.289909 603.092662,162.817663 602.294038,162.686075 L600.579845,162.686075 L600.579845,171 L596,171 L596,149 L602.422977,149 C608.317204,149 610.458196,151.904889 610.458196,155.311206 C610.458196,158.214101 608.816968,160.217817 606.439087,161.016312 L606.439087,161.049209 C607.541569,161.686211 609.681562,165.392587 613,171 L607.774459,171 Z" id="Stroke-42" stroke="#49AB35" stroke-width="0.5"></path>
            <polyline id="Fill-43" fill="#49AB35" fill-rule="nonzero" points="630.959947 152.737279 625.052684 152.737279 625.052684 171 620.44474 171 620.44474 152.737279 614 152.737279 614 149 632 149 630.959947 152.737279"></polyline>
            <polygon id="Stroke-44" stroke="#49AB35" stroke-width="0.5" points="630.959947 152.737279 625.052684 152.737279 625.052684 171 620.44474 171 620.44474 152.737279 614 152.737279 614 149 632 149"></polygon>
            <path d="M644.507107,172 C637.151355,172 633,167.408129 633,160.74133 C633,154.206627 637.940815,149 645.404537,149 C648.260264,149 650.212619,149.510095 651.97281,150.121803 L651.905453,154.4444 C650.115547,153.492291 648.152296,152.878551 645.970135,152.878551 C640.16755,152.878551 637.940815,156.45328 637.940815,160.672233 C637.940815,164.82209 640.326036,168.086901 645.105393,168.086901 C646.498093,168.086901 647.660988,167.884692 648.459363,167.543274 L648.459363,160.19567 L653,160.19567 L653,169.994168 C650.705909,171.216567 647.691694,172 644.507107,172" id="Fill-45" fill="#49AB35" fill-rule="nonzero"></path>
            <path d="M644.507107,172 C637.151355,172 633,167.408129 633,160.74133 C633,154.206627 637.940815,149 645.404537,149 C648.260264,149 650.212619,149.510095 651.97281,150.121803 L651.905453,154.4444 C650.115547,153.492291 648.152296,152.878551 645.970135,152.878551 C640.16755,152.878551 637.940815,156.45328 637.940815,160.672233 C637.940815,164.82209 640.326036,168.086901 645.105393,168.086901 C646.498093,168.086901 647.660988,167.884692 648.459363,167.543274 L648.459363,160.19567 L653,160.19567 L653,169.994168 C650.705909,171.216567 647.691694,172 644.507107,172 Z" id="Stroke-46" stroke="#49AB35" stroke-width="0.5"></path>
            <polyline id="Fill-47" fill="#49AB35" fill-rule="nonzero" points="657 171 657 149 670 149 668.773278 152.737109 661.664999 152.737109 661.664999 157.878749 668.806817 157.878749 668.806817 161.652741 661.664999 161.652741 661.664999 167.2599 669.964428 167.2599 669.964428 171 657 171"></polyline>
            <polygon id="Stroke-48" stroke="#49AB35" stroke-width="0.5" points="657 171 657 149 670 149 668.773278 152.737109 661.664999 152.737109 661.664999 157.878749 668.806817 157.878749 668.806817 161.652741 661.664999 161.652741 661.664999 167.2599 669.964428 167.2599 669.964428 171"></polygon>
            <polyline id="Fill-49" fill="#49AB35" fill-rule="nonzero" points="674 171 684.957896 152.604187 675.719273 152.672981 674.633364 149 692 149 681.315804 167.362911 691.93775 167.26321 691.93775 171 674 171"></polyline>
            <polygon id="Stroke-50" stroke="#49AB35" stroke-width="0.5" points="674 171 684.957896 152.604187 675.719273 152.672981 674.633364 149 692 149 681.315804 167.362911 691.93775 167.26321 691.93775 171"></polygon>
            <polyline id="Fill-51" fill="#49AB35" fill-rule="nonzero" points="696 171 696 149 709 149 707.775502 152.740269 700.660205 152.740269 700.660205 157.880149 707.809036 157.880149 707.809036 161.652318 700.660205 161.652318 700.660205 167.259731 708.964434 167.259731 708.964434 171 696 171"></polyline>
            <polygon id="Stroke-52" stroke="#49AB35" stroke-width="0.5" points="696 171 696 149 709 149 707.775502 152.740269 700.660205 152.740269 700.660205 157.880149 707.809036 157.880149 707.809036 161.652318 700.660205 161.652318 700.660205 167.259731 708.964434 167.259731 708.964434 171"></polygon>
            <polyline id="Fill-53" fill="#49AB35" fill-rule="nonzero" points="728.965873 152.737617 723.053296 152.737617 723.053296 171 718.443102 171 718.443102 152.737617 712 152.737617 712 149 730 149 728.965873 152.737617"></polyline>
            <polygon id="Stroke-54" stroke="#49AB35" stroke-width="0.5" points="728.965873 152.737617 723.053296 152.737617 723.053296 171 718.443102 171 718.443102 152.737617 712 152.737617 712 149 730 149"></polygon>
            <path d="M533.5,187.807086 C529.650505,187.807086 526.841414,190.633697 526.841414,195.537085 C526.841414,200.430313 529.650505,203.255908 533.5,203.255908 C537.293939,203.255908 540.10303,200.430313 540.10303,195.537085 C540.10303,190.70482 537.362626,187.807086 533.5,187.807086 Z M541.893939,203.664355 C539.828283,205.741132 536.985859,207 533.5,207 C530.223232,207 527.516162,206.047975 525.560606,204.27804 C523.254545,202.202279 522,199.174493 522,195.704731 C522,192.403631 523.152525,189.441887 525.216162,187.332597 C527.247475,185.259884 530.088889,184 533.5,184 C537.155556,184 540.2,185.293413 542.19596,187.470778 C544.056566,189.514026 545,192.301012 545,195.429386 C545,198.660379 543.924242,201.622123 541.893939,203.664355 L541.893939,203.664355 Z" id="Fill-55" fill="#49AB35" fill-rule="nonzero"></path>
            <path d="M533.5,187.807086 C529.650505,187.807086 526.841414,190.633697 526.841414,195.537085 C526.841414,200.430313 529.650505,203.255908 533.5,203.255908 C537.293939,203.255908 540.10303,200.430313 540.10303,195.537085 C540.10303,190.70482 537.362626,187.807086 533.5,187.807086 Z M541.893939,203.664355 C539.828283,205.741132 536.985859,207 533.5,207 C530.223232,207 527.516162,206.047975 525.560606,204.27804 C523.254545,202.202279 522,199.174493 522,195.704731 C522,192.403631 523.152525,189.441887 525.216162,187.332597 C527.247475,185.259884 530.088889,184 533.5,184 C537.155556,184 540.2,185.293413 542.19596,187.470778 C544.056566,189.514026 545,192.301012 545,195.429386 C545,198.660379 543.924242,201.622123 541.893939,203.664355 Z" id="Stroke-56" stroke="#49AB35" stroke-width="0.5"></path>
            <path d="M567.849278,207 L558.499414,194.785753 C557.685279,193.714066 557.095666,192.846746 556.442601,191.874751 L556.377196,191.874751 C556.442601,192.611474 556.442601,193.945351 556.442601,194.950245 L556.442601,207 L552,207 L552,185 L556.505076,185 L565.528895,196.752674 C566.377196,197.855266 566.968762,198.723582 567.555447,199.620808 L567.622804,199.620808 C567.555447,198.588001 567.555447,197.152438 567.555447,196.219322 L567.555447,185 L572,185 L572,207 L567.849278,207" id="Fill-57" fill="#49AB35" fill-rule="nonzero"></path>
            <path d="M567.849278,207 L558.499414,194.785753 C557.685279,193.714066 557.095666,192.846746 556.442601,191.874751 L556.377196,191.874751 C556.442601,192.611474 556.442601,193.945351 556.442601,194.950245 L556.442601,207 L552,207 L552,185 L556.505076,185 L565.528895,196.752674 C566.377196,197.855266 566.968762,198.723582 567.555447,199.620808 L567.622804,199.620808 C567.555447,198.588001 567.555447,197.152438 567.555447,196.219322 L567.555447,185 L572,185 L572,207 L567.849278,207 Z" id="Stroke-58" stroke="#49AB35" stroke-width="0.5"></path>
            <path d="M588.16885,188.806063 L585.682738,188.806063 L585.682738,203.226834 L588.241221,203.226834 C593.803629,203.226834 595.987004,199.788618 595.987004,195.950655 C595.987004,191.611265 593.32557,188.806063 588.16885,188.806063 Z M588.069976,207 L581,207 L581,185 L588.479741,185 C596.496662,185 601,189.24369 601,195.814083 C601,202.594816 595.853473,207 588.069976,207 L588.069976,207 Z" id="Fill-59" fill="#49AB35" fill-rule="nonzero"></path>
            <path d="M588.16885,188.806063 L585.682738,188.806063 L585.682738,203.226834 L588.241221,203.226834 C593.803629,203.226834 595.987004,199.788618 595.987004,195.950655 C595.987004,191.611265 593.32557,188.806063 588.16885,188.806063 Z M588.069976,207 L581,207 L581,185 L588.479741,185 C596.496662,185 601,189.24369 601,195.814083 C601,202.594816 595.853473,207 588.069976,207 Z" id="Stroke-60" stroke="#49AB35" stroke-width="0.5"></path>
            <polyline id="Fill-61" fill="#49AB35" fill-rule="nonzero" points="607 207 607 185 620 185 618.772894 188.740269 611.664425 188.740269 611.664425 193.884136 618.811527 193.884136 618.811527 197.653315 611.664425 197.653315 611.664425 203.260728 619.96645 203.260728 619.96645 207 607 207"></polyline>
            <polygon id="Stroke-62" stroke="#49AB35" stroke-width="0.5" points="607 207 607 185 620 185 618.772894 188.740269 611.664425 188.740269 611.664425 193.884136 618.811527 193.884136 618.811527 197.653315 611.664425 197.653315 611.664425 203.260728 619.96645 203.260728 619.96645 207"></polygon>
            <path d="M635.525545,188.805238 L633.579576,188.805238 L633.579576,194.879463 L635.525545,194.879463 C637.463519,194.879463 638.900758,193.714066 638.900758,191.814936 C638.900758,190.107214 637.698395,188.805238 635.525545,188.805238 Z M640.774766,207 C637.430537,201.292641 636.091246,198.817292 635.287671,198.685699 L633.579576,198.685699 L633.579576,207 L629,207 L629,185 L635.423599,185 C641.31548,185 643.456347,187.905021 643.456347,191.314483 C643.456347,194.214519 641.815215,196.219322 639.439473,197.019848 L639.439473,197.05474 C640.54089,197.689777 642.683756,201.392333 646,207 L640.774766,207 L640.774766,207 Z" id="Fill-63" fill="#49AB35" fill-rule="nonzero"></path>
            <path d="M635.525545,188.805238 L633.579576,188.805238 L633.579576,194.879463 L635.525545,194.879463 C637.463519,194.879463 638.900758,193.714066 638.900758,191.814936 C638.900758,190.107214 637.698395,188.805238 635.525545,188.805238 Z M640.774766,207 C637.430537,201.292641 636.091246,198.817292 635.287671,198.685699 L633.579576,198.685699 L633.579576,207 L629,207 L629,185 L635.423599,185 C641.31548,185 643.456347,187.905021 643.456347,191.314483 C643.456347,194.214519 641.815215,196.219322 639.439473,197.019848 L639.439473,197.05474 C640.54089,197.689777 642.683756,201.392333 646,207 L640.774766,207 Z" id="Stroke-64" stroke="#49AB35" stroke-width="0.5"></path>
            <path d="M673.472596,207 L669.572361,207 L666.211231,197.889728 C665.836769,196.930023 665.433192,195.835762 665.199278,194.843407 L665.101898,194.843407 C664.863969,195.868412 664.460392,196.963663 664.123075,197.857079 L660.757929,207 L656.995231,207 L649,185 L654.105945,185 L658.245114,197.656233 C658.582431,198.652545 658.813333,199.58059 659.080376,200.605595 L659.18378,200.605595 C659.420706,199.61324 659.753004,198.652545 660.093333,197.689872 L663.08,188.978323 L661.635357,185 L666.211231,185 L670.545161,197.324789 C670.948737,198.485339 671.317176,199.480662 671.590243,200.540295 L671.687624,200.540295 C671.921537,199.480662 672.160471,198.550639 672.493773,197.394046 L676.326745,185 L681,185 L673.472596,207" id="Fill-65" fill="#49AB35" fill-rule="nonzero"></path>
            <path d="M673.472596,207 L669.572361,207 L666.211231,197.889728 C665.836769,196.930023 665.433192,195.835762 665.199278,194.843407 L665.101898,194.843407 C664.863969,195.868412 664.460392,196.963663 664.123075,197.857079 L660.757929,207 L656.995231,207 L649,185 L654.105945,185 L658.245114,197.656233 C658.582431,198.652545 658.813333,199.58059 659.080376,200.605595 L659.18378,200.605595 C659.420706,199.61324 659.753004,198.652545 660.093333,197.689872 L663.08,188.978323 L661.635357,185 L666.211231,185 L670.545161,197.324789 C670.948737,198.485339 671.317176,199.480662 671.590243,200.540295 L671.687624,200.540295 C671.921537,199.480662 672.160471,198.550639 672.493773,197.394046 L676.326745,185 L681,185 L673.472596,207 Z" id="Stroke-66" stroke="#49AB35" stroke-width="0.5"></path>
            <polygon id="Fill-67" fill="#49AB35" fill-rule="nonzero" points="689 207 694 207 694 185 689 185"></polygon>
            <polygon id="Stroke-68" stroke="#49AB35" stroke-width="0.5" points="689 207 694 207 694 185 689 185"></polygon>
            <path d="M701.242164,212 C700.140148,212 698.971252,211.768019 698,211.433489 L698.93332,208.03442 C699.536235,208.270384 700.378718,208.368951 701.080455,208.368951 C703.246556,208.368951 703.449191,206.668421 703.449191,204.234114 L703.449191,184 L708,184 L708,205.199872 C708,209.235146 706.157317,212 701.242164,212" id="Fill-69" fill="#49AB35" fill-rule="nonzero"></path>
            <path d="M701.242164,212 C700.140148,212 698.971252,211.768019 698,211.433489 L698.93332,208.03442 C699.536235,208.270384 700.378718,208.368951 701.080455,208.368951 C703.246556,208.368951 703.449191,206.668421 703.449191,204.234114 L703.449191,184 L708,184 L708,205.199872 C708,209.235146 706.157317,212 701.242164,212 Z" id="Stroke-70" stroke="#49AB35" stroke-width="0.5"></path>
            <path d="M721.982519,207 C718.831943,207 716.566349,205.943323 715,204.89071 L716.765991,201.52052 C718.127731,202.439016 719.794398,203.255908 721.785856,203.255908 C723.382996,203.255908 725.176798,202.645271 725.176798,200.943411 C725.176798,197.982683 719.853993,197.472633 717.20004,194.377789 C716.3677,193.391218 715.803536,192.128286 715.803536,190.393913 C715.803536,186.995273 718.426698,184 723.25288,184 C725.579062,184 727.506953,184.611653 728.772348,185.361488 L728.699841,189.377877 C726.837505,188.354729 725.280095,187.744092 723.483313,187.744092 C721.852404,187.744092 720.587008,188.489862 720.587008,189.783275 C720.587008,193.661483 730,193.320095 730,200.367319 C730,204.447718 726.476957,207 721.982519,207" id="Fill-71" fill="#49AB35" fill-rule="nonzero"></path>
            <path d="M721.982519,207 C718.831943,207 716.566349,205.943323 715,204.89071 L716.765991,201.52052 C718.127731,202.439016 719.794398,203.255908 721.785856,203.255908 C723.382996,203.255908 725.176798,202.645271 725.176798,200.943411 C725.176798,197.982683 719.853993,197.472633 717.20004,194.377789 C716.3677,193.391218 715.803536,192.128286 715.803536,190.393913 C715.803536,186.995273 718.426698,184 723.25288,184 C725.579062,184 727.506953,184.611653 728.772348,185.361488 L728.699841,189.377877 C726.837505,188.354729 725.280095,187.744092 723.483313,187.744092 C721.852404,187.744092 720.587008,188.489862 720.587008,189.783275 C720.587008,193.661483 730,193.320095 730,200.367319 C730,204.447718 726.476957,207 721.982519,207 Z" id="Stroke-72" stroke="#49AB35" stroke-width="0.5"></path>
            <path d="M290,56.5005134 C290,60.6414539 286.64271,64 282.501027,64 C278.35729,64 275,60.6414539 275,56.5005134 C275,52.3585461 278.35729,49 282.501027,49 C286.64271,49 290,52.3585461 290,56.5005134" id="Fill-73" fill="#0083B5" fill-rule="nonzero"></path>
            <circle id="Oval" fill="#0083B5" fill-rule="nonzero" cx="148" cy="148" r="148"></circle>
            <path d="M290,56.5005134 C290,60.6414539 286.64271,64 282.501027,64 C278.35729,64 275,60.6414539 275,56.5005134 C275,52.3585461 278.35729,49 282.501027,49 C286.64271,49 290,52.3585461 290,56.5005134 Z" id="Stroke-74" stroke="#0083B5" stroke-width="1.3"></path>
            <path d="M318,56.5005134 C318,60.6414539 314.642481,64 310.499487,64 C306.357519,64 303,60.6414539 303,56.5005134 C303,52.3585461 306.357519,49 310.499487,49 C314.642481,49 318,52.3585461 318,56.5005134" id="Fill-75" fill="#0083B5" fill-rule="nonzero"></path>
            <path d="M318,56.5005134 C318,60.6414539 314.642481,64 310.499487,64 C306.357519,64 303,60.6414539 303,56.5005134 C303,52.3585461 306.357519,49 310.499487,49 C314.642481,49 318,52.3585461 318,56.5005134 Z" id="Stroke-76" stroke="#0083B5" stroke-width="1.3"></path>
            <path d="M347,56.5005134 C347,60.6414539 343.641224,64 339.498973,64 C335.357749,64 332,60.6414539 332,56.5005134 C332,52.3585461 335.357749,49 339.498973,49 C343.641224,49 347,52.3585461 347,56.5005134" id="Fill-77" fill="#0083B5" fill-rule="nonzero"></path>
            <path d="M347,56.5005134 C347,60.6414539 343.641224,64 339.498973,64 C335.357749,64 332,60.6414539 332,56.5005134 C332,52.3585461 335.357749,49 339.498973,49 C343.641224,49 347,52.3585461 347,56.5005134 Z" id="Stroke-78" stroke="#0083B5" stroke-width="1.3"></path>
            <path d="M278.368921,81.341353 C306.764692,107.753364 294.884625,175.671824 283.945484,255 C229.97472,240.104872 108.272272,197.149173 105.3745,163.770344 C102.276743,128.087938 191.885709,104.720655 191.885709,104.720655 C191.885709,104.720655 155.432571,104.313022 99,124.574483 C132.75835,40.5620333 217.950664,39.9821329 250.622099,56.3825985 C210.417255,91.209676 188.232996,130.856237 188.232996,130.856237 C188.232996,130.856237 255.093748,59.6937399 278.368921,81.341353" id="Fill-79" fill="#49AB35" fill-rule="nonzero"></path>
            <path d="M135.82121,119.478367 C124.530503,122.377274 112.906893,125.956381 101.027509,130.221535 L88.4500331,134.737334 L93.4326514,122.337379 C109.05688,83.4542683 136.94739,57.6899291 173.54535,47.0617453 C201.263302,39.0123493 232.855273,40.7504458 253.313879,51.0202929 L261.330613,55.0445474 L254.550579,60.9176887 C250.430768,64.4864375 246.372402,68.2210847 242.37857,72.1157434 C236.678688,77.6740867 231.178807,83.4823454 225.9011,89.4982276 C228.664755,87.4945102 231.361946,85.6443496 233.989313,83.952216 C255.579732,70.0470865 271.84252,67.0773434 282.446885,76.9402079 L282.878836,77.3469109 C296.634113,90.4652926 302.470591,112.107154 301.970059,145.37041 L301.952953,146.381948 C301.71514,159.059355 300.600605,173.525122 298.478066,191.82236 L298.085094,195.157684 L297.781047,197.67458 C297.160346,202.762348 296.460747,208.199465 295.623655,214.444927 L294.581219,222.125045 L291.133609,246.872731 L288.953358,262.60641 L280.742681,260.338022 C246.354413,250.746627 204.706114,235.936548 173.059666,221.794472 C125.839082,200.692668 100.936198,182.019163 99.3969827,164.28928 C97.9565304,147.697013 110.959372,132.952775 136.813776,119.435536 L137.601178,119.026295 L135.82121,119.478367 Z M100.55686,124.018868 C122.851652,116.110423 144.274066,110.581942 164.332405,107.400709 L193.639191,102.752683 L165.855803,113.172625 C159.804291,115.442197 154.026345,117.838016 148.590853,120.343332 C118.673513,134.132771 104.061276,148.643602 105.374499,163.770344 C106.640182,178.349471 130.377383,196.148885 175.50762,216.31656 C206.384678,230.114814 246.952851,244.584746 280.747911,254.108145 L283.945484,255 L284.695644,249.585314 L287.667032,249.998661 L290.639206,250.406312 L284.696321,249.580482 L285.884028,241.087675 L289.04255,218.342011 L289.948506,211.612966 C290.680625,206.106879 291.304249,201.228912 291.863468,196.633963 L292.384734,192.273778 C294.48922,174.328825 295.625965,160.12211 295.922455,147.745896 L295.954009,146.269414 C296.566288,113.62998 291.044423,93.1313302 278.377283,81.3491005 L278.128048,81.1218706 C270.285023,74.12134 257.125313,76.4397541 238.403247,88.253696 L237.238085,88.9965672 C230.92357,93.0633777 224.151235,98.1045522 216.984166,104.049687 C213.960944,106.557471 210.916977,109.183814 207.867794,111.911762 L186.466665,131.058263 L203.448316,107.901832 C213.908272,93.6384815 225.564025,80.1321603 238.189598,67.8201038 C242.267121,63.8438323 246.412282,60.0293134 250.622099,56.3825984 C231.591608,46.8296391 201.55039,45.1768604 175.218642,52.8236975 C140.761345,62.8302249 114.475128,86.8943304 99.4518017,123.462529 L99,124.574482 L100.55686,124.018868 Z" id="Stroke-80" fill="#FFFFFE" fill-rule="nonzero"></path>
        </g>
    </g>
</svg>